<svg xmlns="http://www.w3.org/2000/svg" width="1500" height="980" viewBox="0 0 1500 980" role="img" aria-label="压花工作台和花材插画">
  <defs>
    <linearGradient id="sky" x1="0" y1="0" x2="1" y2="1">
      <stop stop-color="#fdf7ed"/>
      <stop offset=".5" stop-color="#eef0e3"/>
      <stop offset="1" stop-color="#d8e4d0"/>
    </linearGradient>
    <linearGradient id="paper" x1="0" y1="0" x2="1" y2="1">
      <stop stop-color="#fffef9"/>
      <stop offset="1" stop-color="#f0e5d3"/>
    </linearGradient>
    <filter id="softShadow" x="-20%" y="-20%" width="140%" height="140%">
      <feDropShadow dx="0" dy="24" stdDeviation="24" flood-color="#604b3b" flood-opacity=".19"/>
    </filter>
    <filter id="glow" x="-40%" y="-40%" width="180%" height="180%">
      <feGaussianBlur stdDeviation="16" result="blur"/>
      <feMerge>
        <feMergeNode in="blur"/>
        <feMergeNode in="SourceGraphic"/>
      </feMerge>
    </filter>
  </defs>
  <rect width="1500" height="980" fill="url(#sky)"/>
  <circle cx="1240" cy="160" r="250" fill="#f0b1a5" opacity=".18"/>
  <circle cx="238" cy="790" r="310" fill="#90a978" opacity=".15"/>
  <path d="M0 760C270 640 470 718 704 786c276 80 500 35 796-92v286H0Z" fill="#c3b08e" opacity=".34"/>

  <g opacity=".22">
    <path d="M114 168c86-68 168-73 246-16" fill="none" stroke="#78906a" stroke-width="8" stroke-linecap="round"/>
    <path d="M124 168c56 28 97 63 123 106" fill="none" stroke="#78906a" stroke-width="5" stroke-linecap="round"/>
    <path d="M1218 744c80-54 156-58 229-11" fill="none" stroke="#78906a" stroke-width="8" stroke-linecap="round"/>
  </g>

  <g filter="url(#softShadow)" transform="rotate(-5 482 526)">
    <rect x="245" y="180" width="460" height="650" rx="38" fill="url(#paper)" stroke="#d2b894" stroke-width="8"/>
    <circle cx="475" cy="252" r="18" fill="#cfb391"/>
    <path d="M474 298c-34 118 35 218-14 348" fill="none" stroke="#76946b" stroke-width="9" stroke-linecap="round" opacity=".7"/>
    <path d="M459 552c-60-22-110 1-161 61" fill="none" stroke="#76946b" stroke-width="8" stroke-linecap="round" opacity=".55"/>
    <path d="M467 636c72-54 148-57 228-9" fill="none" stroke="#76946b" stroke-width="8" stroke-linecap="round" opacity=".55"/>

    <g transform="translate(465 398) scale(1.28)">
      <ellipse cx="0" cy="-35" rx="19" ry="40" fill="#c8576d" opacity=".76"/>
      <ellipse cx="35" cy="0" rx="40" ry="19" fill="#cc6070" opacity=".76"/>
      <ellipse cx="0" cy="35" rx="19" ry="40" fill="#c8576d" opacity=".76"/>
      <ellipse cx="-35" cy="0" rx="40" ry="19" fill="#cc6070" opacity=".76"/>
      <circle cx="0" cy="0" r="15" fill="#a94853"/>
    </g>
    <g transform="translate(594 604) scale(.9)">
      <ellipse cx="0" cy="-32" rx="18" ry="37" fill="#dfa440" opacity=".78"/>
      <ellipse cx="32" cy="0" rx="37" ry="18" fill="#e5b34d" opacity=".78"/>
      <ellipse cx="0" cy="32" rx="18" ry="37" fill="#dfa440" opacity=".78"/>
      <ellipse cx="-32" cy="0" rx="37" ry="18" fill="#e5b34d" opacity=".78"/>
      <circle cx="0" cy="0" r="14" fill="#bd8426"/>
    </g>
  </g>

  <g filter="url(#softShadow)">
    <path d="M902 220h382l-54 438H956Z" fill="#fff4de" stroke="#bea27d" stroke-width="8"/>
    <path d="M981 658h224v166H981Z" fill="#8d7764"/>
    <ellipse cx="1092" cy="836" rx="245" ry="45" fill="#5f5148" opacity=".88"/>
    <path d="M944 656h294" stroke="#c8ac83" stroke-width="12" stroke-linecap="round"/>
    <g filter="url(#glow)" opacity=".7">
      <ellipse cx="1095" cy="438" rx="196" ry="230" fill="#ffebc7" opacity=".35"/>
    </g>
    <path d="M1062 320c-20 85 21 140-7 228" fill="none" stroke="#7b9b68" stroke-width="7" stroke-linecap="round" opacity=".62"/>
    <path d="M1058 462c-44-20-80-5-117 41" fill="none" stroke="#7b9b68" stroke-width="6" stroke-linecap="round" opacity=".5"/>
    <g transform="translate(1066 372)">
      <ellipse cx="0" cy="-28" rx="16" ry="34" fill="#c85d71" opacity=".75"/>
      <ellipse cx="29" cy="0" rx="34" ry="16" fill="#cf6a76" opacity=".75"/>
      <ellipse cx="0" cy="28" rx="16" ry="34" fill="#c85d71" opacity=".75"/>
      <ellipse cx="-29" cy="0" rx="34" ry="16" fill="#cf6a76" opacity=".75"/>
      <circle cx="0" cy="0" r="13" fill="#a64a54"/>
    </g>
    <g transform="translate(1150 518) scale(.78)">
      <ellipse cx="0" cy="-30" rx="17" ry="35" fill="#dca23e" opacity=".78"/>
      <ellipse cx="30" cy="0" rx="35" ry="17" fill="#e1ae4a" opacity=".78"/>
      <ellipse cx="0" cy="30" rx="17" ry="35" fill="#dca23e" opacity=".78"/>
      <ellipse cx="-30" cy="0" rx="35" ry="17" fill="#e1ae4a" opacity=".78"/>
      <circle cx="0" cy="0" r="13" fill="#b78026"/>
    </g>
  </g>

  <g opacity=".7">
    <ellipse cx="224" cy="234" rx="20" ry="46" fill="#c65a70" transform="rotate(-34 224 234)"/>
    <ellipse cx="1330" cy="392" rx="18" ry="42" fill="#d9a13e" transform="rotate(45 1330 392)"/>
    <ellipse cx="810" cy="156" rx="15" ry="36" fill="#87a26e" transform="rotate(27 810 156)"/>
    <ellipse cx="132" cy="586" rx="16" ry="38" fill="#dca43d" transform="rotate(-18 132 586)"/>
  </g>
</svg>
