<svg xmlns="http://www.w3.org/2000/svg" width="900" height="900" viewBox="0 0 900 900" role="img" aria-label="压花小铺花材占位图">
  <defs>
    <linearGradient id="paper" x1="0" y1="0" x2="1" y2="1">
      <stop stop-color="#fffdf7"/>
      <stop offset=".55" stop-color="#f4eadb"/>
      <stop offset="1" stop-color="#e6d8c6"/>
    </linearGradient>
    <filter id="shadow" x="-20%" y="-20%" width="140%" height="140%">
      <feDropShadow dx="0" dy="18" stdDeviation="22" flood-color="#6e5a49" flood-opacity=".18"/>
    </filter>
  </defs>
  <rect width="900" height="900" fill="#f8f2e9"/>
  <path d="M0 694C152 638 300 657 438 714c154 63 305 66 462-2v188H0Z" fill="#d9c7ad" opacity=".38"/>
  <circle cx="710" cy="160" r="172" fill="#f0b4aa" opacity=".23"/>
  <circle cx="160" cy="740" r="188" fill="#9fb48a" opacity=".18"/>

  <g filter="url(#shadow)" transform="rotate(-4 450 456)">
    <rect x="256" y="118" width="388" height="628" rx="34" fill="url(#paper)" stroke="#d3b99a" stroke-width="7"/>
    <circle cx="450" cy="184" r="17" fill="#d3b99a"/>
    <path d="M452 226C427 310 456 376 432 452c-19 61-11 117 20 169" fill="none" stroke="#7d9b6c" stroke-width="8" stroke-linecap="round" opacity=".68"/>
    <path d="M432 447c-38-18-75-10-111 23" fill="none" stroke="#7d9b6c" stroke-width="8" stroke-linecap="round" opacity=".58"/>
    <path d="M453 536c45-26 91-24 139 6" fill="none" stroke="#7d9b6c" stroke-width="8" stroke-linecap="round" opacity=".58"/>

    <g transform="translate(438 318)">
      <ellipse cx="0" cy="-35" rx="20" ry="42" fill="#c95d72" opacity=".76"/>
      <ellipse cx="35" cy="0" rx="42" ry="20" fill="#cf6a78" opacity=".76"/>
      <ellipse cx="0" cy="35" rx="20" ry="42" fill="#c95d72" opacity=".76"/>
      <ellipse cx="-35" cy="0" rx="42" ry="20" fill="#cf6a78" opacity=".76"/>
      <circle cx="0" cy="0" r="16" fill="#a84c57" opacity=".82"/>
    </g>

    <g transform="translate(532 512) scale(.78)">
      <ellipse cx="0" cy="-34" rx="19" ry="40" fill="#dea840" opacity=".78"/>
      <ellipse cx="34" cy="0" rx="40" ry="19" fill="#e2b04b" opacity=".78"/>
      <ellipse cx="0" cy="34" rx="19" ry="40" fill="#dea840" opacity=".78"/>
      <ellipse cx="-34" cy="0" rx="40" ry="19" fill="#e2b04b" opacity=".78"/>
      <circle cx="0" cy="0" r="15" fill="#b98628" opacity=".8"/>
    </g>

    <g transform="translate(362 472) scale(.66) rotate(-12)">
      <ellipse cx="0" cy="-32" rx="18" ry="38" fill="#95ad78" opacity=".72"/>
      <ellipse cx="31" cy="0" rx="38" ry="18" fill="#a6bb85" opacity=".72"/>
      <ellipse cx="0" cy="32" rx="18" ry="38" fill="#95ad78" opacity=".72"/>
      <ellipse cx="-31" cy="0" rx="38" ry="18" fill="#a6bb85" opacity=".72"/>
      <circle cx="0" cy="0" r="14" fill="#778f5d" opacity=".72"/>
    </g>
  </g>

  <text x="450" y="820" text-anchor="middle" fill="#6f5a49" font-family="Arial, sans-serif" font-size="30" font-weight="700">压花小铺</text>
  <text x="450" y="858" text-anchor="middle" fill="#9a8472" font-family="Arial, sans-serif" font-size="18">真实花材 · 手作留存</text>
</svg>
